<?xml version="1.0" encoding="utf-8" ?><svg xmlns="http://www.w3.org/2000/svg" xmlns:xlink="http://www.w3.org/1999/xlink" width="1024" height="1024" viewBox="0 0 1024 1024"><path fill="#0E1112" d="M0 0L1024 0L1024 1024L987.175 1024L766.031 1024L642.504 1024L548.952 1024L507.198 1024L301.728 1024L232.09 1024L36.4897 1024L0 1024L0 0Z"/><path fill="#25E3B9" d="M301.728 1024C304.737 1021.25 308.52 1018.27 311.796 1015.8C343.815 991.708 375.206 966.722 407.558 943.087C417.794 935.609 425.28 930.018 433.215 919.733C441.587 908.88 447.279 896.204 449.828 882.736C451.581 873.259 451.127 859.268 451.14 849.245L451.177 802.969L451.131 755.791C451.094 746.918 451.366 735.902 450.296 727.319C448.061 709.384 437.434 692.531 423.988 680.786C415.907 673.727 405.316 668.797 395.712 663.804C384.968 658.164 374.155 652.657 363.275 647.283C321.324 626.416 279.578 604.503 237.822 583.224L203.674 565.969C194.518 561.385 182.905 556.099 174.801 549.89C158.654 537.517 149.701 518.985 146.622 499.237C144.451 485.317 154.707 464.639 163.232 454.178C197.298 412.375 259.864 393.346 311.424 387.187C339.979 383.776 363.708 382.965 387.027 402.024C400.226 412.812 408.673 426.235 412.717 442.776C415.52 454.244 414.749 468.534 414.728 480.507L414.806 539.222C414.824 547.87 414.438 563.807 415.416 572.072C418.179 595.024 432.658 614.896 453.659 624.56C463.613 629.204 472.308 630.939 481.298 638.337C504.793 657.671 509.905 692.649 513.081 720.996C513.761 720.652 513.971 720.464 514.267 719.774L514.544 719.168L514.826 538.233L514.821 491.104C514.817 478.426 514.092 463.466 516.649 451.29C520.039 435.777 527.952 421.616 539.388 410.598C551.074 399.379 565.573 391.525 581.354 387.866C594.146 384.896 605.352 385.487 618.326 385.493L650.677 385.516C676.78 385.319 702.884 385.328 728.987 385.543C780.571 386.274 870.175 412.38 874.591 476.224C875.392 487.82 860.975 509.605 852.718 517.175C845.7 523.485 834.101 531.013 825.918 536.735L772.643 573.72L597.143 696.185L566.288 717.573C553.449 726.398 540.199 734.956 529.932 746.714C516.809 761.741 507.427 783.445 507.098 803.473C506.935 813.364 507.076 823.733 507.119 833.687L507.252 888.362C507.256 933.242 506.64 979.251 507.198 1024L301.728 1024Z"/><path fill="#00210B" d="M514.544 719.168C514.502 721.928 514.503 724.689 514.546 727.45L513.451 726.509C513.476 724.489 513.115 722.938 513.081 720.996C513.761 720.652 513.971 720.464 514.267 719.774L514.544 719.168Z"/><path fill="#26968D" d="M513.451 726.509L514.546 727.45C514.609 728.262 515.013 732.027 514.691 732.569C514.649 732.561 514.606 732.553 514.564 732.546C513.944 731.831 513.501 727.598 513.451 726.509Z"/><path fill="#25E3B9" d="M875.736 524.875L877.042 526.655C877.691 555.201 881.161 582.426 859.643 604.668C854.601 609.881 848.663 613.866 842.822 618.143L821.178 633.95L768.441 673.267C747.745 688.379 729.03 697.406 729.449 726.416C729.638 738.356 734.623 749.719 743.281 757.943C750.922 765.29 774.546 775.605 785.175 780.828L856.132 815.778C873.207 823.996 890.224 832.336 907.18 840.796C924.318 849.232 950.178 860.104 963.524 873.043C977.882 886.963 986.802 905.798 987.098 925.927C987.579 958.585 986.786 991.406 987.175 1024L766.031 1024L642.504 1024L548.952 1024C548.32 980.438 548.976 934.964 548.972 891.271L548.993 841.532C549.008 831.271 548.672 820.171 549.577 809.986C551.043 793.469 560.532 776.544 572.338 765.221C579.61 758.246 588.399 752.574 596.548 746.749L633.788 720.029L793.637 605.944L827.225 581.969C835.864 575.799 844.95 569.963 852.42 562.444C862.795 552.001 871.789 539.182 875.736 524.875Z"/><path fill="#0E1112" d="M642.504 1024L642.455 874.715L642.481 836.676C642.485 822.411 640.957 805.01 652.547 794.156C669.405 778.368 689.88 794.457 706.031 802.436L731.498 814.97C744.308 821.277 755.342 825.832 761.528 839.81C766.558 851.177 765.732 864.051 765.757 876.215L765.794 909.264L766.031 1024L642.504 1024Z"/><path fill="#25E3B9" d="M147.693 555.531C162.344 594.092 185.384 602.312 218.997 619.852L315.029 670.036C325.797 675.626 336.53 681.281 347.229 687.001C376.166 702.204 402.454 716.34 408.291 752.268C409.463 759.479 409.028 767.349 409.014 774.677L408.942 805.408L408.983 838.739C409.003 846.92 409.317 856.275 408.092 864.251C407.127 870.266 405.365 876.126 402.852 881.676C399.064 890.103 393.751 897.757 387.18 904.252C382.364 908.936 375.368 914.092 369.922 918.301L340.683 940.7L232.09 1024L36.4897 1024L36.4821 990.965C36.4879 971.442 35.3103 958.509 42.5461 939.724C53.2589 911.911 70.5845 901.014 94.9283 886.262L127.527 866.507L205.603 818.896C229.982 803.985 254.213 788.824 278.74 774.145C293.723 765.177 303.206 750.42 301.989 732.61C299.985 703.271 269.598 691.966 247.159 680.079L197.786 653.705C191.633 650.471 185.473 647.267 179.355 643.97C160.015 633.55 148.178 615.699 146.925 593.714C147.25 588.068 146.37 558.094 147.693 555.531Z"/><path fill="#26968D" d="M147.08 553.434C147.316 554.175 147.508 554.773 147.693 555.531C146.37 558.094 147.25 588.068 146.925 593.714C146.242 589.551 146.629 585.113 146.535 580.872C146.338 571.964 146.857 562.406 146.434 553.548L147.08 553.434Z"/><path fill="#26968D" d="M875.736 524.875C875.832 524.23 876.086 521.843 876.71 521.486C877.15 522.126 877.045 525.706 877.042 526.655L875.736 524.875Z"/><path fill="#172D30" d="M146.434 553.548C145.342 550.8 146.726 550.429 146.951 552.461C146.988 552.786 147.032 553.11 147.08 553.434L146.434 553.548Z"/><path fill="#FEFEFE" d="M572.468 119.621L610.738 119.637C638.327 119.668 664.786 119.564 686.159 140.271C718.249 171.467 715.617 235.061 678.967 261.781C658.072 277.014 634.628 276.629 610.233 276.624L574.686 276.727C580.707 270.995 593.494 257.83 599.566 253.327C618.078 253.839 637.382 255.175 654.853 249.043C689.933 234.271 691.655 180.631 667.833 155.568C651.17 138.037 619.188 141.479 596.456 141.825C596.418 177.264 595.846 214.352 596.483 249.68C590.384 254.911 577.766 267.701 572.484 273.637L572.468 119.621Z"/><path fill="#FEFEFE" d="M145.925 117.994L180.239 117.923C177.695 120.84 165.145 134.637 164.059 137.541C151.207 171.907 140.826 208.285 127.384 242.384C147.891 230.17 168.582 214.934 188.975 203.235C185.142 194.562 181.55 183.204 178.418 174.125C174.604 163.065 170.313 151.216 167.078 140.031C171.899 133.567 178.45 125.427 183.846 119.51C191.856 138.548 198.13 158.731 205.954 177.889C208.235 183.471 211.315 190.856 212.881 196.603C207.582 203.599 200.365 213.557 196.347 221.182C199.408 218.509 203.041 214.708 205.988 211.791L215.488 202.534C219.989 215.323 224.626 228.065 229.4 240.755C233.708 252.505 238.144 265.199 243.096 276.615L216.034 276.668C210.034 260.065 201.651 237.67 197.087 220.95C188.693 227.842 179.918 233.232 171.1 239.419C153.089 252.056 134.254 263.879 116.373 276.621L90.5108 276.565C102.847 242.672 114.818 208.647 126.422 174.496C132.904 155.749 140.038 136.944 145.925 117.994Z"/><path fill="#FEFEFE" d="M720.815 195.295C727.954 163.659 760.797 157.192 788.629 162.742C808.651 166.734 820.342 183.815 822.63 203.213C823.78 212.967 823.326 222.678 823.255 232.473C823.159 247.191 823.158 261.91 823.253 276.628L797.994 276.611L797.921 265.752C797.437 261.602 798.448 256.262 796.867 253.566C787.56 279.58 764.474 282.967 740.15 275.305C719.882 268.921 711.249 247.509 718.497 228.203C725.404 209.598 759.29 201.323 776.402 207.952C788.106 212.486 792.586 222.999 796.103 234.001C790.122 226.795 783.665 222.713 774.606 221.985C766.859 221.362 751.775 223.04 746.682 228.765C730.332 247.144 751.411 259.175 768.646 258.458C782.262 257.891 791.709 254.318 797.546 241.619C799.183 237.129 798.426 232.854 798.721 228.383C800.3 204.391 798.768 180.328 767.551 181.408C757.975 181.739 749.17 186.338 744.352 195.392L720.815 195.295Z"/><path fill="#464144" d="M798.008 251.495C797.997 256.246 798.122 261.007 797.921 265.752C797.437 261.602 798.448 256.262 796.867 253.566C796.959 252.881 796.995 252.611 797.154 251.952L798.008 251.495Z"/><path fill="#E5E6E7" d="M797.422 248.902C797.389 248.327 797.065 246.507 797.767 246.156C798.417 246.33 798.265 248.166 798.244 248.631L798.204 249.588L797.422 248.902Z"/><path fill="#929196" d="M797.422 248.902L798.204 249.588L798.008 251.495L797.154 251.952C797.354 250.716 797.384 250.154 797.422 248.902Z"/><path fill="#FEFEFE" d="M418.003 161.682C437.902 158.935 460.992 167.738 471.921 184.925C479.47 196.796 481.536 208.81 481.542 222.543L441.908 222.776C421.095 222.867 411.334 219.19 395.366 234.323C406.516 203.095 422.016 208.126 450.221 208.072C452.596 208.067 455.128 208.073 457.508 208.072C452.196 190.45 441.119 179.104 421.427 181.824C412.532 183.045 404.503 187.8 399.157 195.014C391.235 205.601 390.787 220.315 392.704 232.876C396.944 253.01 419.688 263.003 438.382 256.451C448.908 252.761 453.98 247.361 458.852 237.585L479.722 237.509C473.67 261.023 458.136 274.09 434.064 277.803C378.618 286.354 350.696 225.353 379.387 182.39C387.221 170.659 404.448 163.567 418.003 161.682Z"/><path fill="#FEFEFE" d="M924.255 162.75L930.989 162.767L930.878 236.099C930.858 249.82 931.681 277.493 928.727 289.566C926.484 298.439 921.883 306.542 915.413 313.015C901.198 327.175 883.877 327.507 865.298 327.549L842.18 327.567C842.132 320.214 842.165 312.861 842.279 305.51L851.79 305.472L873.141 305.501C904.489 305.259 907.697 287.273 906.708 261.185C898.913 267.936 891.72 273.365 882.399 277.779C905.137 250.983 907.509 240.081 907.45 204.885L907.42 162.901L924.255 162.75Z"/><path fill="#FEFEFE" d="M331.852 121.926C332.991 123.64 332.524 155.6 332.516 160.357L362.891 160.507L362.884 181.715C352.819 181.581 342.581 181.665 332.501 181.651L332.46 213.694C332.457 222.662 331.911 231.62 333.672 240.446C337.055 257.397 349.206 256.94 362.905 257.059L362.859 278.243C357.456 278.243 350.358 278.271 345.097 277.514C335.743 276.01 327.148 272.767 320.292 265.975C306.538 252.351 308.464 231.38 308.472 213.535L308.497 181.562L283.125 181.587C283.004 174.616 283.074 167.427 283.052 160.436L308.521 160.412L308.53 144.601C316.749 136.892 323.963 130.03 331.852 121.926Z"/><path fill="#FEFEFE" d="M251.945 117.514L275.684 117.479C274.936 170.021 275.493 223.932 275.514 276.541L251.996 276.527L251.945 117.514Z"/><path fill="#FEFEFE" d="M517.893 190.092C525.587 169.001 537.118 161.199 559.726 161.416C559.657 169.248 559.897 177.322 559.87 185.241C547.398 183.009 534.162 184.795 524.884 194.103C520.869 198.152 518.03 203.217 516.672 208.755C514.867 215.967 515.471 230.034 515.494 238.006L515.551 276.584L491.821 276.547C491.525 262.946 491.798 248.337 491.794 234.664L491.556 162.921L516.455 162.926C516.429 168.824 516.333 174.815 516.528 180.703C516.358 185.586 516.317 190.473 516.406 195.358C516.845 193.909 517.664 191.495 517.893 190.092Z"/><path fill="#FEFEFE" d="M824.059 163.513C832.494 163.317 841.366 163.47 849.835 163.492L874.463 232.897C878.56 244.28 883.084 255.629 887.036 267.039C884.308 269.212 883.252 270.349 880.892 272.884L876.231 278.666L864.766 278.554C861.261 269.909 858.387 260.692 855.112 251.935C844.241 222.872 835.101 192.412 824.059 163.513Z"/></svg>