<?xml version="1.0" encoding="utf-8" ?>
<!-- ALTERDAY wordmark — dark theme (white + teal on transparent) -->
<svg xmlns="http://www.w3.org/2000/svg" width="855" height="230" viewBox="85 105 855 230">
  <defs>
    <filter id="textGlow" x="-20%" y="-40%" width="140%" height="180%">
      <feGaussianBlur stdDeviation="5" result="blur"/>
      <feColorMatrix type="matrix"
        values="0 0 0 0 0
                0 0.9 0.77 0 0.2
                0 0 0.76 0 0.5
                0 0 0 0.7 0"
        result="coloredBlur"/>
      <feMerge>
        <feMergeNode in="coloredBlur"/>
        <feMergeNode in="SourceGraphic"/>
      </feMerge>
    </filter>
  </defs>

  <!-- A — ALTER -->
  <path filter="url(#textGlow)" fill="#D9FFF8" d="M145.925 117.994L180.239 117.923C177.695 120.84 165.145 134.637 164.059 137.541C151.207 171.907 140.826 208.285 127.384 242.384C147.891 230.17 168.582 214.934 188.975 203.235C185.142 194.562 181.55 183.204 178.418 174.125C174.604 163.065 170.313 151.216 167.078 140.031C171.899 133.567 178.45 125.427 183.846 119.51C191.856 138.548 198.13 158.731 205.954 177.889C208.235 183.471 211.315 190.856 212.881 196.603C207.582 203.599 200.365 213.557 196.347 221.182C199.408 218.509 203.041 214.708 205.988 211.791L215.488 202.534C219.989 215.323 224.626 228.065 229.4 240.755C233.708 252.505 238.144 265.199 243.096 276.615L216.034 276.668C210.034 260.065 201.651 237.67 197.087 220.95C188.693 227.842 179.918 233.232 171.1 239.419C153.089 252.056 134.254 263.879 116.373 276.621L90.5108 276.565C102.847 242.672 114.818 208.647 126.422 174.496C132.904 155.749 140.038 136.944 145.925 117.994Z"/>
  <!-- L — ALTER -->
  <path filter="url(#textGlow)" fill="#D9FFF8" d="M251.945 117.514L275.684 117.479C274.936 170.021 275.493 223.932 275.514 276.541L251.996 276.527L251.945 117.514Z"/>
  <!-- T — ALTER -->
  <path filter="url(#textGlow)" fill="#D9FFF8" d="M331.852 121.926C332.991 123.64 332.524 155.6 332.516 160.357L362.891 160.507L362.884 181.715C352.819 181.581 342.581 181.665 332.501 181.651L332.46 213.694C332.457 222.662 331.911 231.62 333.672 240.446C337.055 257.397 349.206 256.94 362.905 257.059L362.859 278.243C357.456 278.243 350.358 278.271 345.097 277.514C335.743 276.01 327.148 272.767 320.292 265.975C306.538 252.351 308.464 231.38 308.472 213.535L308.497 181.562L283.125 181.587C283.004 174.616 283.074 167.427 283.052 160.436L308.521 160.412L308.53 144.601C316.749 136.892 323.963 130.03 331.852 121.926Z"/>
  <!-- E — ALTER -->
  <path filter="url(#textGlow)" fill="#D9FFF8" d="M418.003 161.682C437.902 158.935 460.992 167.738 471.921 184.925C479.47 196.796 481.536 208.81 481.542 222.543L441.908 222.776C421.095 222.867 411.334 219.19 395.366 234.323C406.516 203.095 422.016 208.126 450.221 208.072C452.596 208.067 455.128 208.073 457.508 208.072C452.196 190.45 441.119 179.104 421.427 181.824C412.532 183.045 404.503 187.8 399.157 195.014C391.235 205.601 390.787 220.315 392.704 232.876C396.944 253.01 419.688 263.003 438.382 256.451C448.908 252.761 453.98 247.361 458.852 237.585L479.722 237.509C473.67 261.023 458.136 274.09 434.064 277.803C378.618 286.354 350.696 225.353 379.387 182.39C387.221 170.659 404.448 163.567 418.003 161.682Z"/>
  <!-- R — ALTER -->
  <path filter="url(#textGlow)" fill="#D9FFF8" d="M517.893 190.092C525.587 169.001 537.118 161.199 559.726 161.416C559.657 169.248 559.897 177.322 559.87 185.241C547.398 183.009 534.162 184.795 524.884 194.103C520.869 198.152 518.03 203.217 516.672 208.755C514.867 215.967 515.471 230.034 515.494 238.006L515.551 276.584L491.821 276.547C491.525 262.946 491.798 248.337 491.794 234.664L491.556 162.921L516.455 162.926C516.429 168.824 516.333 174.815 516.528 180.703C516.358 185.586 516.317 190.473 516.406 195.358C516.845 193.909 517.664 191.495 517.893 190.092Z"/>
  <!-- D — DAY -->
  <path filter="url(#textGlow)" fill="#00E5C3" d="M572.468 119.621L610.738 119.637C638.327 119.668 664.786 119.564 686.159 140.271C718.249 171.467 715.617 235.061 678.967 261.781C658.072 277.014 634.628 276.629 610.233 276.624L574.686 276.727C580.707 270.995 593.494 257.83 599.566 253.327C618.078 253.839 637.382 255.175 654.853 249.043C689.933 234.271 691.655 180.631 667.833 155.568C651.17 138.037 619.188 141.479 596.456 141.825C596.418 177.264 595.846 214.352 596.483 249.68C590.384 254.911 577.766 267.701 572.484 273.637L572.468 119.621Z"/>
  <!-- A — DAY -->
  <path filter="url(#textGlow)" fill="#00E5C3" d="M720.815 195.295C727.954 163.659 760.797 157.192 788.629 162.742C808.651 166.734 820.342 183.815 822.63 203.213C823.78 212.967 823.326 222.678 823.255 232.473C823.159 247.191 823.158 261.91 823.253 276.628L797.994 276.611L797.921 265.752C797.437 261.602 798.448 256.262 796.867 253.566C787.56 279.58 764.474 282.967 740.15 275.305C719.882 268.921 711.249 247.509 718.497 228.203C725.404 209.598 759.29 201.323 776.402 207.952C788.106 212.486 792.586 222.999 796.103 234.001C790.122 226.795 783.665 222.713 774.606 221.985C766.859 221.362 751.775 223.04 746.682 228.765C730.332 247.144 751.411 259.175 768.646 258.458C782.262 257.891 791.709 254.318 797.546 241.619C799.183 237.129 798.426 232.854 798.721 228.383C800.3 204.391 798.768 180.328 767.551 181.408C757.975 181.739 749.17 186.338 744.352 195.392L720.815 195.295Z"/>
  <path fill="#00E5C3" d="M798.008 251.495C797.997 256.246 798.122 261.007 797.921 265.752C797.437 261.602 798.448 256.262 796.867 253.566C796.959 252.881 796.995 252.611 797.154 251.952L798.008 251.495Z"/>
  <path fill="#00E5C3" d="M797.422 248.902C797.389 248.327 797.065 246.507 797.767 246.156C798.417 246.33 798.265 248.166 798.244 248.631L798.204 249.588L797.422 248.902Z"/>
  <path fill="#00E5C3" d="M797.422 248.902L798.204 249.588L798.008 251.495L797.154 251.952C797.354 250.716 797.384 250.154 797.422 248.902Z"/>
  <!-- Y — DAY -->
  <path filter="url(#textGlow)" fill="#00E5C3" d="M924.255 162.75L930.989 162.767L930.878 236.099C930.858 249.82 931.681 277.493 928.727 289.566C926.484 298.439 921.883 306.542 915.413 313.015C901.198 327.175 883.877 327.507 865.298 327.549L842.18 327.567C842.132 320.214 842.165 312.861 842.279 305.51L851.79 305.472L873.141 305.501C904.489 305.259 907.697 287.273 906.708 261.185C898.913 267.936 891.72 273.365 882.399 277.779C905.137 250.983 907.509 240.081 907.45 204.885L907.42 162.901L924.255 162.75Z"/>
  <path filter="url(#textGlow)" fill="#00E5C3" d="M824.059 163.513C832.494 163.317 841.366 163.47 849.835 163.492L874.463 232.897C878.56 244.28 883.084 255.629 887.036 267.039C884.308 269.212 883.252 270.349 880.892 272.884L876.231 278.666L864.766 278.554C861.261 269.909 858.387 260.692 855.112 251.935C844.241 222.872 835.101 192.412 824.059 163.513Z"/>
</svg>
